<?xml version="1.0" encoding="UTF-8" standalone="no" ?>
<!DOCTYPE svg PUBLIC "-//W3C//DTD SVG 1.1//EN" "http://www.w3.org/Graphics/SVG/1.1/DTD/svg11.dtd">
<svg xmlns="http://www.w3.org/2000/svg" xmlns:xlink="http://www.w3.org/1999/xlink" version="1.1" width="1080" height="1080" viewBox="0 0 1080 1080" xml:space="preserve">
<desc>Created with Fabric.js 5.2.4</desc>
<defs>
</defs>
<rect x="0" y="0" width="100%" height="100%" fill="transparent"></rect>
<g transform="matrix(1 0 0 1 540 540)" id="f8fa6d5c-3b09-4bf5-8660-f57d000843f8"  >
<rect style="stroke: none; stroke-width: 1; stroke-dasharray: none; stroke-linecap: butt; stroke-dashoffset: 0; stroke-linejoin: miter; stroke-miterlimit: 4; fill: rgb(255,255,255); fill-rule: nonzero; opacity: 1; visibility: hidden;" vector-effect="non-scaling-stroke"  x="-540" y="-540" rx="0" ry="0" width="1080" height="1080" />
</g>
<g transform="matrix(1 0 0 1 540 540)" id="d63a7d2a-b5cb-460d-a865-56dc4ec63f5a"  >
</g>
<g transform="matrix(1 0 0 1 377.06 545.98)" clip-path="url(#CLIPPATH_5)"  >
<linearGradient id="SVGID_paint0_linear_3" gradientUnits="userSpaceOnUse" gradientTransform="matrix(1 0 0 1 0 0)"  x1="13.5" y1="74" x2="57" y2="96">
<stop offset="0%" style="stop-color:rgb(24,90,189);stop-opacity: 1"/>
<stop offset="100%" style="stop-color:rgb(50,114,209);stop-opacity: 1"/>
</linearGradient>
<clipPath id="CLIPPATH_5" >
	<rect transform="matrix(1 0 0 1 15.46 -6.83)" id="clip0" x="-41" y="-41" rx="0" ry="0" width="82" height="82" />
</clipPath>
<path style="stroke: none; stroke-width: 1; stroke-dasharray: none; stroke-linecap: butt; stroke-dashoffset: 0; stroke-linejoin: miter; stroke-miterlimit: 4; fill: url(#SVGID_paint0_linear_3); fill-rule: nonzero; opacity: 1;" vector-effect="non-scaling-stroke"  transform=" translate(-40.54, -87.83)" d="M 51.302 109.109 L 61.7741 98.6163 C 62.9597 97.4273 62.9597 95.5021 61.7741 94.3131 L 34.0735 66.5595 C 32.8879 65.3705 30.9643 65.3705 29.7788 66.5595 L 19.3067 77.0521 C 18.1211 78.2411 18.1211 80.1663 19.3067 81.3553 L 47.0073 109.109 C 48.1929 110.298 50.1148 110.298 51.302 109.109 Z" stroke-linecap="round" />
</g>
<g transform="matrix(1 0 0 1 400.26 540)" clip-path="url(#CLIPPATH_6)"  >
<linearGradient id="SVGID_paint1_linear_4" gradientUnits="userSpaceOnUse" gradientTransform="matrix(1 0 0 1 0 0)"  x1="104.5" y1="44.5" x2="36" y2="110">
<stop offset="0%" style="stop-color:rgb(87,191,245);stop-opacity: 1"/>
<stop offset="100%" style="stop-color:rgb(41,136,230);stop-opacity: 1"/>
</linearGradient>
<clipPath id="CLIPPATH_6" >
	<rect transform="matrix(1 0 0 1 -7.74 -0.85)" id="clip0" x="-41" y="-41" rx="0" ry="0" width="82" height="82" />
</clipPath>
<path style="stroke: none; stroke-width: 1; stroke-dasharray: none; stroke-linecap: butt; stroke-dashoffset: 0; stroke-linejoin: miter; stroke-miterlimit: 4; fill: url(#SVGID_paint1_linear_4); fill-rule: nonzero; opacity: 1;" vector-effect="non-scaling-stroke"  transform=" translate(-63.74, -81.85)" d="M 47.096 109.184 L 36.4651 98.5326 C 35.3222 97.388 35.3222 95.5327 36.4651 94.3882 L 76.2504 54.5242 C 77.3933 53.3796 79.2452 53.3796 80.3863 54.5242 L 91.0173 65.1757 C 92.1602 66.3202 92.1602 68.1755 91.0173 69.3201 L 51.2319 109.184 C 50.0907 110.327 48.2389 110.327 47.096 109.184 Z" stroke-linecap="round" />
</g>
<g transform="matrix(1 0 0 1 540 540)" style="" id="66684556-c79c-4f3c-818c-c415524fc881"  >
		<text xml:space="preserve" font-family="Lato" font-size="40" font-style="normal" font-weight="400" style="stroke: none; stroke-width: 1; stroke-dasharray: none; stroke-linecap: butt; stroke-dashoffset: 0; stroke-linejoin: miter; stroke-miterlimit: 4; fill: rgb(0,0,0); fill-rule: nonzero; opacity: 1; white-space: pre;" ><tspan x="-90.4" y="12.57" >To Do App</tspan></text>
</g>
</svg>